<?xml version="1.0" encoding="utf-8"?>
<!-- Generator: Adobe Illustrator 19.0.0, SVG Export Plug-In . SVG Version: 6.00 Build 0)  -->
<svg version="1.1"
	 id="svg2" xmlns:svg="http://www.w3.org/2000/svg" xmlns:rdf="http://www.w3.org/1999/02/22-rdf-syntax-ns#" xmlns:cc="http://creativecommons.org/ns#" xmlns:dc="http://purl.org/dc/elements/1.1/"
	 xmlns="http://www.w3.org/2000/svg" xmlns:xlink="http://www.w3.org/1999/xlink" x="0px" y="0px" width="166px" height="195px"
	 viewBox="87 -130 166 195" style="enable-background:new 87 -130 166 195;" xml:space="preserve">

<path fill="#6EC848" d="M139-92.6h-0.3v44.9c0,3.7,3.1,6.8,6.8,6.8h5.9v15.7c0,3.8,3.1,6.8,6.8,6.8
	c3.8,0,6.8-3.1,6.8-6.8v-15.7h9.2v15.7c0,3.8,3.1,6.8,6.8,6.8s6.8-3.1,6.8-6.8v-15.7h5.7c3.8,0,6.8-3.1,6.8-6.8v-44.9L139-92.6
	L139-92.6z M152.6-108.7c0,1.6,1.3,2.9,2.9,2.9c1.6,0,2.9-1.3,2.9-2.9s-1.3-2.9-2.9-2.9C153.9-111.6,152.6-110.3,152.6-108.7z
	 M180.7-108.7c0,1.6,1.3,2.9,2.9,2.9s2.9-1.3,2.9-2.9s-1.3-2.9-2.9-2.9S180.7-110.3,180.7-108.7z M138.7-94.9c0-0.3,0-0.6,0-0.9
	c0-2.1,0.3-4.1,0.8-6.1c1.9-7.5,7.3-13.9,14.6-17.7l-4.7-8.7c-0.3-0.5-0.1-1.2,0.4-1.5c0.5-0.3,1.2-0.1,1.5,0.4l4.8,8.8
	c4.1-1.8,8.6-2.8,13.5-2.8c4.8,0,9.3,1,13.4,2.7l4.8-8.8c0.3-0.5,1-0.7,1.5-0.4c0.5,0.3,0.7,1,0.4,1.5l-4.7,8.7
	c7.7,3.9,13.2,10.7,14.9,18.7c0.2,0.9,0.3,1.8,0.4,2.8v3.3L138.7-94.9L138.7-94.9z M216.4-86.9c0-3.8-3.1-6.8-6.8-6.8
	c-3.8,0-6.8,3.1-6.8,6.8v28.6c0,3.8,3.1,6.8,6.8,6.8c3.8,0,6.8-3.1,6.8-6.8V-86.9z M136.2-86.9v28.6c0,3.8-3.1,6.8-6.8,6.8
	c-3.8,0-6.8-3.1-6.8-6.8v-28.6c0-3.8,3.1-6.8,6.8-6.8C133.2-93.7,136.2-90.7,136.2-86.9"/>
<path fill="#7B7979" d="M252.4-3.3h-8.8l-19.1,45.8h3.9L209.4-3.2h-9.1l21.6,50.1l-1.7,3.9c-1.9,4.3-5.6,6.2-9.1,6.2
	h-2.9v7.9h2.8c7.8,0,13.9-4.2,17.2-12.1L252.4-3.3L252.4-3.3L252.4-3.3z M195.6,48.8V-3.2h-7.8v5.9c-4.4-4.4-10.4-7-17.3-7
	c-14.9,0-26.6,12.1-26.6,27c0,15,11.7,27.1,26.6,27.1c6.9,0,12.9-2.7,17.3-7v5.9L195.6,48.8L195.6,48.8L195.6,48.8z M171.1,42.3
	c-10.7,0-19.3-8.7-19.3-19.5c0-10.7,8.6-19.5,19.3-19.5c6.7,0,13,3.1,16.2,8.5c0.2,0.3,0.5,0.8,0.5,1.7V32c-0.1,0.9-0.4,1.5-0.6,1.8
	C183.8,39,177.8,42.3,171.1,42.3L171.1,42.3z M94.8,64.5V42.9c4.4,4.4,10.4,7,17.3,7c14.8,0,26.6-12.1,26.6-27.1
	c0-15-11.8-27.1-26.6-27.1c-6.9,0-12.9,2.7-17.3,7v-5.9H87v67.7L94.8,64.5L94.8,64.5L94.8,64.5z M111.5,42.3
	c-6.7,0-12.9-3.2-16.2-8.5c-0.2-0.3-0.5-0.8-0.5-1.7V13.4c0.1-0.9,0.4-1.5,0.6-1.7c3.5-5.2,9.5-8.4,16.1-8.4
	c10.6,0,19.3,8.7,19.3,19.5C130.8,33.6,122.1,42.3,111.5,42.3L111.5,42.3"/>
</svg>
