<svg version="1.1" xmlns:svg="http://www.w3.org/2000/svg" xmlns="http://www.w3.org/2000/svg" x="0px" y="0px" width="105.913px" height="49.583px" viewBox="0.9 1.001 105.913 49.583" style="enable-background:new 0.9 1.001 105.913 49.583;" xml:space="preserve">
	<g fill="#fff">
		<path d="M27.717,21.545c0.056,5.849,5.297,7.795,5.355,7.82	c-0.044,0.138-0.837,2.774-2.761,5.498c-1.663,2.354-3.39,4.7-6.108,4.749c-2.672,0.048-3.531-1.534-6.586-1.534	c-3.054,0-4.009,1.485-6.538,1.582c-2.624,0.096-4.623-2.547-6.3-4.893c-3.427-4.799-6.046-13.56-2.529-19.474	c1.747-2.937,4.868-4.797,8.257-4.844c2.577-0.048,5.01,1.679,6.586,1.679c1.574,0,4.531-2.077,7.639-1.772	c1.301,0.053,4.953,0.509,7.298,3.834C31.84,14.304,27.671,16.655,27.717,21.545 M22.695,7.181	c1.393-1.634,2.332-3.908,2.076-6.171c-2.009,0.078-4.438,1.296-5.878,2.929c-1.292,1.446-2.422,3.76-2.117,5.979	C19.015,10.086,21.302,8.816,22.695,7.181"></path>

		<path d="M42.364,4.436c1.021-0.176,2.146-0.334,3.378-0.475c1.231-0.141,2.585-0.211,4.064-0.211	c2.111,0,3.931,0.255,5.461,0.765c1.531,0.51,2.788,1.24,3.772,2.19c0.845,0.844,1.506,1.846,1.98,3.007	c0.474,1.161,0.71,2.498,0.71,4.011c0,1.829-0.324,3.43-0.975,4.802c-0.65,1.372-1.538,2.524-2.664,3.456	c-1.127,0.932-2.463,1.626-4.011,2.084c-1.549,0.457-3.237,0.686-5.067,0.686c-1.653,0-3.042-0.123-4.167-0.369V39.58h-2.481	V4.436z M44.845,22.167c0.598,0.175,1.266,0.298,2.005,0.368c0.739,0.07,1.53,0.105,2.374,0.105c3.166,0,5.62-0.739,7.361-2.216	c1.741-1.477,2.612-3.641,2.612-6.49c0-1.372-0.228-2.569-0.685-3.589c-0.458-1.021-1.108-1.856-1.952-2.507	c-0.844-0.651-1.847-1.143-3.008-1.478c-1.162-0.334-2.446-0.501-3.854-0.501c-1.125,0-2.093,0.044-2.902,0.132	c-0.809,0.088-1.46,0.185-1.952,0.29V22.167z"></path>
		<path d="M81.458,33.565c0,1.02,0.017,2.041,0.052,3.061c0.035,1.02,0.14,2.004,0.317,2.954h-2.322l-0.369-3.588	h-0.107c-0.316,0.493-0.721,0.985-1.213,1.477s-1.064,0.941-1.714,1.346c-0.651,0.405-1.39,0.73-2.217,0.976	c-0.827,0.245-1.732,0.369-2.717,0.369c-1.231,0-2.314-0.203-3.247-0.606c-0.932-0.405-1.697-0.933-2.295-1.583	c-0.598-0.652-1.046-1.399-1.345-2.243c-0.299-0.844-0.448-1.688-0.448-2.533c0-2.99,1.257-5.294,3.772-6.913	c2.516-1.619,6.307-2.392,11.374-2.322v-0.686c0-0.669-0.062-1.435-0.185-2.297c-0.124-0.862-0.396-1.68-0.819-2.453	c-0.422-0.773-1.055-1.424-1.899-1.951c-0.844-0.528-1.988-0.792-3.43-0.792c-1.091,0-2.172,0.167-3.245,0.501	c-1.073,0.334-2.049,0.8-2.928,1.398l-0.792-1.847c1.125-0.773,2.287-1.327,3.482-1.661c1.197-0.334,2.445-0.501,3.747-0.501	c1.759,0,3.193,0.299,4.301,0.897c1.108,0.598,1.979,1.372,2.612,2.321c0.633,0.95,1.065,2.014,1.293,3.193	c0.228,1.179,0.344,2.349,0.344,3.509V33.565z M78.978,26.019c-1.338-0.036-2.737,0.017-4.197,0.158	c-1.459,0.14-2.805,0.449-4.036,0.923c-1.232,0.475-2.251,1.17-3.06,2.085s-1.214,2.128-1.214,3.641	c0,1.793,0.51,3.113,1.531,3.957c1.019,0.844,2.162,1.267,3.429,1.267c1.02,0,1.935-0.14,2.744-0.423	c0.809-0.282,1.511-0.66,2.11-1.134s1.099-1.011,1.504-1.609c0.406-0.599,0.713-1.213,0.925-1.848	c0.176-0.704,0.265-1.214,0.265-1.532V26.019z"></path>
		<path d="M86.309,14.25l6.436,16.464c0.353,0.915,0.687,1.856,1.004,2.824c0.317,0.966,0.598,1.856,0.844,2.664	h0.106c0.247-0.773,0.527-1.644,0.844-2.612c0.317-0.967,0.669-1.961,1.055-2.983l6.017-16.358h2.637l-7.333,18.576	c-0.74,1.969-1.434,3.756-2.085,5.356c-0.65,1.601-1.311,3.043-1.979,4.327c-0.669,1.284-1.345,2.418-2.033,3.404	c-0.685,0.984-1.452,1.847-2.295,2.585c-0.984,0.879-1.891,1.522-2.718,1.927c-0.826,0.405-1.38,0.66-1.662,0.765l-0.846-2.058	c0.634-0.282,1.338-0.651,2.112-1.108c0.774-0.458,1.531-1.055,2.269-1.794c0.634-0.633,1.329-1.468,2.085-2.507	c0.756-1.037,1.433-2.295,2.032-3.773c0.211-0.563,0.317-0.933,0.317-1.109c0-0.245-0.105-0.615-0.317-1.108l-9.13-23.483H86.309z	"></path>
	</g>
</svg>