<svg width="81" height="48" viewBox="0 0 81 48" fill="none" xmlns="http://www.w3.org/2000/svg">
<path d="M5.11993 8.90441C10.0504 7.63383 14.9818 6.36351 19.9122 5.09294C21.2399 4.75074 22.5974 4.40645 23.9636 4.51709C27.2479 4.78465 29.7353 7.56109 31.5008 10.3442C33.0702 12.8194 34.3681 15.4672 35.3642 18.2242C37.471 15.6349 39.1896 12.7303 40.4449 9.63721C40.5163 11.1347 40.1153 12.3045 40.2724 13.6701C40.3801 14.6041 40.975 15.916 42.007 15.8627C42.6525 15.8295 43.2535 15.2644 43.7026 14.7592C44.6725 13.6694 45.532 12.3761 46.6192 11.5612C44.9363 14.5578 43.9042 17.9178 43.6143 21.342C46.4721 19.8047 49.0402 17.7643 51.9348 16.2962C54.8284 14.8278 58.2405 13.958 61.3231 14.971C63.8898 15.8147 65.8751 17.834 67.6663 19.8568C71.1621 23.8015 74.3364 28.0302 77.1509 32.4873C73.4513 29.1527 67.0675 29.4516 63.6958 33.117C61.453 30.8617 57.5494 31.1262 54.9732 32.9903C53.0629 31.682 50.3771 31.0086 48.3825 32.1848C47.9188 32.4588 47.2102 33.5532 47.2102 33.5532C47.2102 33.5532 46.3724 32.146 46.1538 31.8733C45.3567 30.8772 43.9892 30.4746 42.7159 30.5538C41.4423 30.6339 40.2353 31.1302 39.0739 31.6587C36.2068 32.9642 33.4502 34.5106 30.8419 36.2766C31.3643 33.9667 31.6941 31.0843 29.8016 29.661C28.4964 28.6807 26.6082 28.8888 25.1641 29.6504C25.3 28.1601 24.6435 26.6205 23.4737 25.6865C22.3039 24.7525 20.6573 24.4531 19.234 24.9156C19.9254 23.2473 19.4775 21.1732 18.1601 19.9382C16.8426 18.7032 14.7424 18.3929 13.1236 19.1911C13.6475 16.9017 13.0339 14.38 11.5162 12.5864C9.99842 10.7929 7.46455 8.76429 5.11993 8.90441Z" fill="#020203"/>
</svg>
