<?xml version="1.0" encoding="utf-8"?>
<!-- Generator: Adobe Illustrator 19.0.0, SVG Export Plug-In . SVG Version: 6.00 Build 0)  -->
<svg version="1.1" id="Layer_1" xmlns="http://www.w3.org/2000/svg" xmlns:xlink="http://www.w3.org/1999/xlink" x="0px" y="0px"
	 viewBox="307 263.1 1210.5 315.8" style="enable-background:new 307 263.1 1210.5 315.8;" xml:space="preserve">
<style type="text/css">
	.st0{fill:#020202;stroke:#231F20;stroke-miterlimit:10;}
	.st1{fill:#FFFFFF;}
</style>
<rect x="307" y="263.1" class="st0" width="1210.5" height="315.8"/>
<g>
	<path class="st1" d="M387.1,354.6v-18.1h5.2v6.9h17.6v-6.9h5.2v18.1h-5.2v-7.1h-17.6v7.1H387.1z"/>
	<path class="st1" d="M432.3,354.6c-4.3,0-7.4-0.9-9.3-2.6c-0.9-0.8-1.5-1.7-1.9-2.7c-0.4-1-0.7-2.3-0.7-3.7c0-2.7,0.9-4.8,2.6-6.4
		c2-1.8,5.1-2.7,9.3-2.7h6.5c4.2,0,7.3,0.9,9.3,2.7c1.7,1.6,2.6,3.7,2.6,6.4c0,1.4-0.2,2.6-0.7,3.7c-0.4,1-1.1,1.9-1.9,2.7
		c-1.9,1.8-5.1,2.6-9.3,2.6H432.3z M432.7,340.5c-1.4,0-2.5,0.1-3.5,0.3c-1,0.2-1.7,0.6-2.3,1.1c-0.5,0.4-0.8,0.9-1,1.4
		c-0.2,0.5-0.3,1.2-0.3,2.2c0,0.9,0.1,1.7,0.3,2.2c0.2,0.5,0.5,1,1,1.4c0.6,0.5,1.3,0.9,2.3,1.1c1,0.2,2.1,0.3,3.5,0.3h5.8
		c1.4,0,2.5-0.1,3.5-0.3c1-0.2,1.7-0.5,2.3-1.1c0.5-0.4,0.8-0.9,1-1.4c0.2-0.5,0.3-1.2,0.3-2.2c0-0.9-0.1-1.7-0.3-2.2
		c-0.2-0.5-0.5-1-1-1.4c-0.6-0.5-1.3-0.9-2.3-1.1c-1-0.2-2.1-0.3-3.5-0.3H432.7z"/>
	<path class="st1" d="M456.1,336.4h20.5c2.2,0,3.9,0.4,5.1,1.1c1.2,0.7,1.8,1.9,1.8,3.6c0,1-0.2,1.8-0.7,2.5
		c-0.5,0.6-1.1,1.1-1.9,1.5c0.5,0.1,0.9,0.2,1.4,0.4c0.4,0.2,0.8,0.5,1.2,0.9c0.4,0.4,0.6,0.8,0.8,1.3c0.2,0.5,0.3,1.1,0.3,1.8
		c0,1.6-0.6,2.9-1.7,3.8c-1.1,0.9-2.7,1.3-4.8,1.3h-22L456.1,336.4L456.1,336.4z M461.3,340.5v2.9h15.1c0.7,0,1.2-0.1,1.5-0.3
		c0.3-0.2,0.4-0.6,0.4-1.1c0-0.5-0.2-0.8-0.5-1.1c-0.3-0.2-0.9-0.3-1.7-0.3C476.1,340.5,461.3,340.5,461.3,340.5z M461.3,347.3v3.2
		H477c0.8,0,1.4-0.1,1.8-0.3c0.4-0.2,0.5-0.6,0.5-1.2c0-1.1-0.8-1.6-2.3-1.6C477,347.3,461.3,347.3,461.3,347.3z"/>
	<path class="st1" d="M509.2,342.1c1,0,2,0.2,2.8,0.5c0.8,0.3,1.6,0.7,2.1,1.3c0.6,0.5,1,1.2,1.4,1.9s0.5,1.6,0.5,2.5
		c0,0.9-0.2,1.7-0.5,2.5c-0.3,0.8-0.8,1.4-1.4,2c-0.6,0.6-1.3,1-2.2,1.3c-0.9,0.3-1.8,0.5-2.9,0.5h-19.7v-18.1h5.2v5.7
		C494.7,342.1,509.2,342.1,509.2,342.1z M508.7,350.6c0.8,0,1.4-0.3,1.7-0.8c0.3-0.5,0.5-1,0.5-1.5c0-0.5-0.2-1-0.5-1.5
		c-0.3-0.5-0.9-0.7-1.7-0.7h-14v4.4H508.7z M525,354.6h-5.2v-18.1h5.2V354.6z"/>
	<path class="st1" d="M531.3,354.6v-18.1h5.2V347l17.6-7.3v-3.2h5.2v18.1h-5.2v-10.7l-17.6,7.3v3.4
		C536.5,354.6,531.3,354.6,531.3,354.6z M544.9,332.4c-1.3,0-2.5-0.1-3.6-0.4c-1.1-0.3-2.1-0.7-2.9-1.3c-0.9-0.6-1.6-1.3-2.1-2.1
		c-0.5-0.9-0.9-1.9-1.1-3h4c0.2,1.1,0.8,2,1.9,2.6c1.1,0.6,2.4,0.9,4,0.9h0.3c1.6,0,2.9-0.3,4-0.9c1.1-0.6,1.7-1.5,1.9-2.6h4
		c-0.2,1.2-0.5,2.2-1.1,3c-0.5,0.9-1.3,1.6-2.1,2.1c-0.9,0.6-1.9,1-3,1.3c-1.1,0.3-2.3,0.4-3.5,0.4H544.9z"/>
	<path class="st1" d="M578.7,354.6v-4.2h14.2c2.2,0,4.1-0.2,5.5-0.5c1.5-0.3,2.6-0.9,3.5-1.7c0.8-0.7,1.3-1.6,1.7-2.8
		c0.3-1.1,0.5-2.5,0.5-4.1v-15.7h5.6V342c0,2.1-0.3,3.9-0.8,5.4c-0.5,1.5-1.3,2.7-2.4,3.8c-1.2,1.1-2.7,2-4.7,2.6
		c-2,0.6-4.5,0.9-7.5,0.9C594.3,354.6,578.7,354.6,578.7,354.6z"/>
	<path class="st1" d="M656.2,343.5c0,1.8-0.2,3.3-0.7,4.5c-0.4,1.2-1.1,2.2-2,3.1c-1.4,1.4-3.5,2.4-6.1,3s-5.9,0.9-9.8,0.9H636
		c-3.9,0-7.2-0.3-9.8-0.9s-4.7-1.6-6.1-3c-0.9-0.9-1.6-1.9-2-3.1c-0.4-1.2-0.7-2.7-0.7-4.5v-18h5.6v17c0,1.4,0.1,2.5,0.4,3.4
		c0.2,0.9,0.7,1.6,1.4,2.2c0.9,0.9,2.3,1.5,4.1,1.9c1.9,0.4,4.4,0.6,7.5,0.6h1c3.2,0,5.7-0.2,7.5-0.6c1.8-0.4,3.2-1,4.2-1.9
		c0.7-0.6,1.2-1.4,1.4-2.2c0.2-0.9,0.4-2,0.4-3.4v-17h5.5L656.2,343.5L656.2,343.5z"/>
	<path class="st1" d="M695.9,350.3v-9.6h5.4v13.9h-18c-2.2,0-4.2-0.1-5.9-0.2c-1.7-0.1-3.2-0.3-4.6-0.6c-1.3-0.3-2.5-0.7-3.5-1.2
		c-1-0.5-1.9-1.1-2.8-1.9c-1.3-1.2-2.3-2.7-3-4.4c-0.7-1.8-1-3.9-1-6.3c0-2.4,0.3-4.5,1-6.3c0.7-1.8,1.7-3.2,3-4.4
		c0.8-0.7,1.7-1.4,2.8-1.9c1-0.5,2.2-0.9,3.5-1.2c1.3-0.3,2.9-0.5,4.6-0.6c1.7-0.1,3.7-0.2,5.9-0.2h17.4v4.2h-17
		c-1.7,0-3.3,0-4.7,0.1c-1.4,0.1-2.6,0.2-3.6,0.4s-1.9,0.5-2.7,0.8c-0.8,0.3-1.4,0.8-2,1.4c-0.9,0.9-1.5,2.1-1.8,3.4
		s-0.5,2.7-0.5,4.2c0,1.5,0.2,2.9,0.5,4.2c0.3,1.3,0.9,2.5,1.8,3.4c0.5,0.6,1.2,1,2,1.4c0.8,0.3,1.7,0.6,2.7,0.8
		c1,0.2,2.2,0.3,3.6,0.4c1.4,0.1,2.9,0.1,4.7,0.1C683.8,350.3,695.9,350.3,695.9,350.3z"/>
	<path class="st1" d="M747.6,343.5c0,1.8-0.2,3.3-0.7,4.5c-0.4,1.2-1.1,2.2-2,3.1c-1.4,1.4-3.5,2.4-6.1,3c-2.6,0.6-5.9,0.9-9.8,0.9
		h-1.6c-3.9,0-7.2-0.3-9.8-0.9c-2.6-0.6-4.7-1.6-6.1-3c-0.9-0.9-1.6-1.9-2-3.1c-0.4-1.2-0.7-2.7-0.7-4.5v-18h5.6v17
		c0,1.4,0.1,2.5,0.4,3.4c0.2,0.9,0.7,1.6,1.4,2.2c0.9,0.9,2.3,1.5,4.1,1.9c1.9,0.4,4.4,0.6,7.5,0.6h1c3.2,0,5.7-0.2,7.5-0.6
		c1.8-0.4,3.2-1,4.2-1.9c0.7-0.6,1.2-1.4,1.4-2.2c0.2-0.9,0.4-2,0.4-3.4v-17h5.5L747.6,343.5L747.6,343.5z"/>
	<path class="st1" d="M784.9,349h-24.5l-3.7,5.6h-6.2l19.7-29h5l19.8,29h-6.3L784.9,349z M763.2,344.7H782l-9.4-14L763.2,344.7z"/>
	<path class="st1" d="M805.7,345.8v8.8h-5.6v-29h24.5c2.3,0,4.3,0.2,5.9,0.7c1.7,0.5,3,1.2,4.1,2.3c0.8,0.8,1.4,1.8,1.9,3
		c0.4,1.2,0.7,2.6,0.7,4.2s-0.2,3-0.7,4.2s-1.1,2.2-1.9,3c-1.4,1.4-3.4,2.3-6.1,2.7c0.6,0.3,1.3,0.8,1.9,1.3c0.7,0.5,1.5,1.2,2.4,2
		l6.4,5.8h-7.3l-8-7.3c-0.4-0.3-0.7-0.6-1-0.8c-0.3-0.2-0.6-0.4-0.9-0.5c-0.3-0.1-0.6-0.2-0.9-0.2c-0.3,0-0.7-0.1-1.2-0.1
		C820,345.8,805.7,345.8,805.7,345.8z M824.1,341.6c1.5,0,2.8-0.1,3.7-0.3s1.7-0.6,2.3-1.1c0.9-0.9,1.4-2.4,1.4-4.4
		c0-2.1-0.5-3.5-1.4-4.4c-0.6-0.5-1.3-0.9-2.3-1.1c-1-0.2-2.2-0.3-3.7-0.3h-18.4v11.8C805.7,341.6,824.1,341.6,824.1,341.6z"/>
	<path class="st1" d="M877.6,336.4l12.5-10.9h7l-15.9,13.7l17.8,15.3h-7.3l-14.2-12.3l-14.1,12.3h-7.1l17.6-15.2l-16.2-13.9h7.3
		L877.6,336.4z"/>
	<path class="st1" d="M902.7,354.6v-4.2h14.2c2.2,0,4.1-0.2,5.5-0.5c1.5-0.3,2.6-0.9,3.5-1.7c0.8-0.7,1.3-1.6,1.7-2.8
		c0.3-1.1,0.5-2.5,0.5-4.1v-15.7h5.6V342c0,2.1-0.3,3.9-0.8,5.4c-0.5,1.5-1.3,2.7-2.4,3.8c-1.2,1.1-2.7,2-4.7,2.6
		c-2,0.6-4.5,0.9-7.5,0.9C918.3,354.6,902.7,354.6,902.7,354.6z"/>
</g>
<g>
	<path class="st1" d="M399.2,414.4h13l24.1-19.4H454l-31.3,24.4l33.8,27.9h-18.3l-25.5-21.6h-13.6v21.6H386V395h13.2V414.4z"/>
	<path class="st1" d="M504.9,394.2c7.3,0,13.4,0.6,18.2,1.8c4.8,1.2,8.7,3.3,11.6,6.2c2.1,2.2,3.7,4.8,4.7,8.1
		c1,3.2,1.5,6.9,1.5,10.9c0,4.1-0.5,7.7-1.5,10.9c-1,3.2-2.6,5.9-4.7,8.1c-2.9,2.9-6.7,5-11.6,6.2c-4.8,1.2-10.9,1.8-18.3,1.8h-10.3
		c-7.3,0-13.4-0.6-18.2-1.8c-4.8-1.2-8.7-3.3-11.6-6.2c-2.1-2.2-3.7-4.8-4.7-8.1c-1-3.2-1.5-6.9-1.5-10.9c0-4.1,0.5-7.7,1.5-10.9
		c1-3.2,2.6-5.9,4.7-8.1c2.9-2.9,6.7-5,11.6-6.2c4.8-1.2,10.9-1.8,18.2-1.8H504.9z M503.7,436.7c2.4,0,4.6,0,6.6-0.1
		c1.9-0.1,3.7-0.3,5.2-0.5c1.5-0.2,2.9-0.6,4.1-1c1.2-0.5,2.2-1,3.1-1.7c1.5-1.2,2.7-2.9,3.4-4.9c0.7-2,1.1-4.4,1.1-7.3
		s-0.4-5.3-1.1-7.3c-0.7-2-1.8-3.6-3.4-4.9c-1.8-1.3-4.2-2.2-7.1-2.7c-3-0.5-6.9-0.7-11.9-0.7h-7.8c-4.9,0-8.9,0.2-11.9,0.7
		c-3,0.5-5.4,1.4-7.1,2.7c-1.5,1.2-2.7,2.9-3.4,4.9c-0.7,2-1.1,4.4-1.1,7.3s0.4,5.3,1.1,7.3c0.7,2,1.8,3.6,3.4,4.9
		c0.9,0.7,1.9,1.2,3.1,1.7c1.2,0.5,2.5,0.8,4.1,1c1.5,0.2,3.3,0.4,5.2,0.5c1.9,0.1,4.1,0.1,6.6,0.1H503.7z"/>
	<path class="st1" d="M551.7,447.3V395H613v10.4h-48.1v41.9H551.7L551.7,447.3z"/>
	<path class="st1" d="M608.3,436.9h8.8c1-1.8,1.8-3.6,2.3-5.5c0.6-1.9,0.9-4,1.1-6.3l2.1-30.1h59.5v41.9h8v25h-12.5v-14.6h-56.9
		v14.6h-12.5V436.9z M633.5,424.8c-0.3,4.8-1.1,8.9-2.4,12.1h37.9v-31.5h-34.2L633.5,424.8z"/>
	<path class="st1" d="M753.8,437.8H714l-6.3,9.5h-14.6l35.5-52.3h10.7l35.7,52.3h-14.9L753.8,437.8z M720.9,427.4h25.8l-13-19.4
		L720.9,427.4z"/>
	<path class="st1" d="M868.7,395v10.4h-50v9.6h33.7c2.7,0,5.2,0.1,7.4,0.4c2.2,0.3,4.1,0.8,5.8,1.5c2.9,1.2,5.1,3.1,6.4,5.5
		c1.3,2.4,2,5.3,2,8.6c0,2.9-0.5,5.4-1.4,7.4c-0.9,2-2.2,3.6-3.7,4.9c-2.2,1.7-4.7,2.8-7.5,3.3c-2.8,0.5-6.1,0.8-10,0.8h-45.8V395
		H868.7z M851.2,436.9c1.2,0,2.5,0,3.7-0.1c1.2,0,2.2-0.3,3.1-0.7c1.7-0.8,2.5-2.6,2.5-5.3c0-1.2-0.2-2.2-0.5-3
		c-0.3-0.7-0.8-1.3-1.3-1.8c-0.8-0.6-1.9-1-3.2-1.1c-1.3-0.1-2.7-0.1-4.3-0.1h-32.6v12L851.2,436.9L851.2,436.9z"/>
	<path class="st1" d="M897.5,447.3h-13.2V395h13.2v33l45.6-24V395h13.2v52.3h-13.2v-32.3l-45.6,24V447.3z"/>
	<path class="st1" d="M974.7,426.1v-10.2h36.9c4.3,0,6.4-1.8,6.4-5.3c0-1.8-0.5-3.1-1.6-3.9c-1.1-0.8-2.7-1.2-4.9-1.2h-43.8v-10.4
		h44.5c3.6,0,6.6,0.3,9.1,1s4.5,1.6,6,2.8c1.5,1.2,2.6,2.6,3.3,4.2c0.7,1.6,1,3.4,1,5.2c0,2.8-0.6,5.2-1.9,7.2
		c-1.3,2-3.2,3.5-5.8,4.5c2.9,0.7,5.2,2.1,6.8,4.2c1.6,2.1,2.4,4.8,2.4,8c0,4.8-1.6,8.5-4.7,11.1c-3.1,2.6-7.6,3.9-13.5,3.9h-47.2
		v-10.4h43.8c3,0,5.1-0.4,6.3-1.3c1.2-0.9,1.7-2.3,1.7-4.3c0-2-0.6-3.4-1.8-4.1c-1.2-0.7-3-1.1-5.3-1.1H974.7L974.7,426.1z"/>
	<path class="st1" d="M1057.5,447.3h-13.2V395h13.2v19.9h45.6V395h13.2v52.3H1103v-21.7h-45.6V447.3z"/>
	<path class="st1" d="M1191.8,447.3h-61.5V395h61.3v10.4h-48.1v10.2h32.4v9.9h-32.4v11.4h48.3V447.3z"/>
	<path class="st1" d="M1214.1,421.2c0,2.8,0.4,5.2,1.1,7.2c0.7,2,1.8,3.7,3.4,4.9c1.8,1.4,4.1,2.3,7.1,2.7c3,0.4,6.9,0.6,11.8,0.6
		h29.9v10.6h-31.8c-7.1,0-12.9-0.6-17.5-1.7c-4.6-1.1-8.3-3.1-11-5.8c-2.2-2.2-3.8-4.8-5-7.9c-1.2-3.1-1.8-6.7-1.8-10.7
		s0.6-7.6,1.8-10.7c1.2-3.1,2.8-5.8,5-7.9c2.7-2.7,6.4-4.7,11-5.8c4.6-1.1,10.4-1.7,17.5-1.7h31.8v10.6h-29.9
		c-4.9,0-8.9,0.2-11.8,0.6c-3,0.4-5.3,1.3-7.1,2.7c-1.5,1.2-2.7,2.9-3.4,4.9C1214.5,416,1214.1,418.4,1214.1,421.2z"/>
	<path class="st1" d="M1301.1,426.4h64.6v8.9h-64.6V426.4z"/>
	<path class="st1" d="M432.1,509.3c2-1.6,3.4-4,4-7.3h-40.9v-10.2H436c-0.7-3-2-5.3-4-6.8c-0.9-0.7-1.9-1.3-3-1.7
		c-1.1-0.4-2.4-0.8-4-1c-1.5-0.2-3.2-0.4-5.1-0.5c-1.9-0.1-4.1-0.1-6.6-0.1h-29.8V471h31.8c7.1,0,12.8,0.6,17.4,1.7
		c4.5,1.1,8.1,3.1,10.9,5.8c2.2,2.2,3.8,4.8,5,7.9c1.2,3.1,1.8,6.7,1.8,10.7c0,4-0.6,7.6-1.8,10.7c-1.2,3.1-2.8,5.8-5,7.9
		c-2.7,2.7-6.4,4.7-11,5.8c-4.6,1.1-10.4,1.7-17.5,1.7h-31.8v-10.6h29.9c4.9,0,8.9-0.2,11.8-0.6
		C427.9,511.6,430.3,510.7,432.1,509.3z"/>
	<path class="st1" d="M454.2,471h69v10.4h-27.9v41.9h-13.2v-41.9h-27.9V471z"/>
	<path class="st1" d="M573.6,470.2c7.3,0,13.4,0.6,18.2,1.8c4.8,1.2,8.7,3.3,11.6,6.2c2.1,2.2,3.7,4.9,4.7,8.1
		c1,3.2,1.5,6.9,1.5,10.9c0,4.1-0.5,7.7-1.5,10.9c-1,3.2-2.6,5.9-4.7,8.1c-2.9,2.9-6.7,5-11.6,6.2c-4.8,1.2-10.9,1.8-18.3,1.8h-10.3
		c-7.3,0-13.4-0.6-18.2-1.8c-4.8-1.2-8.7-3.3-11.6-6.2c-2.1-2.2-3.7-4.8-4.7-8.1c-1-3.2-1.5-6.9-1.5-10.9c0-4.1,0.5-7.7,1.5-10.9
		c1-3.2,2.6-5.9,4.7-8.1c2.9-2.9,6.7-5,11.6-6.2c4.8-1.2,10.9-1.8,18.2-1.8H573.6L573.6,470.2z M572.4,512.7c2.4,0,4.6,0,6.6-0.1
		c1.9-0.1,3.7-0.3,5.2-0.5s2.9-0.6,4.1-1c1.2-0.5,2.2-1,3.1-1.7c1.5-1.2,2.7-2.9,3.4-4.9c0.7-2,1.1-4.4,1.1-7.3
		c0-2.9-0.4-5.3-1.1-7.3c-0.7-2-1.8-3.6-3.4-4.9c-1.8-1.3-4.2-2.2-7.1-2.7c-3-0.5-6.9-0.7-11.9-0.7h-7.8c-4.9,0-8.9,0.2-11.9,0.7
		c-3,0.5-5.4,1.4-7.1,2.7c-1.5,1.2-2.7,2.9-3.4,4.9c-0.7,2-1.1,4.4-1.1,7.3c0,2.9,0.4,5.3,1.1,7.3c0.7,2,1.8,3.6,3.4,4.9
		c0.9,0.7,1.9,1.2,3.1,1.7c1.2,0.5,2.5,0.8,4.1,1c1.5,0.2,3.3,0.4,5.2,0.5c1.9,0.1,4.1,0.1,6.6,0.1H572.4z"/>
	<path class="st1" d="M657.5,471h63.4v52.3h-13.2v-41.9h-38.2l-1.9,27.3c-0.3,4.7-1.5,8.1-3.5,10.4c-1.2,1.4-2.9,2.5-5.1,3.2
		s-4.7,1-7.7,1h-12.2l0.1-10.4h8.5c1.5,0,2.8-0.2,3.7-0.5c1-0.3,1.7-0.8,2.2-1.5c0.5-0.7,0.9-1.5,1.1-2.5c0.2-1,0.3-2.2,0.4-3.7
		L657.5,471z"/>
	<path class="st1" d="M748.2,523.3H735V471h13.2v33l45.6-24V471H807v52.3h-13.2v-32.3l-45.6,24L748.2,523.3L748.2,523.3z"/>
	<path class="st1" d="M886,523.3h-13.2v-16h-33.6c-4.4,0-7.9-0.3-10.4-1c-2.5-0.7-4.5-1.8-5.9-3.2c-1.2-1.2-2.1-2.8-2.6-4.5
		s-0.7-4.3-0.7-7.6V471h13.2v17.9c0,1.7,0.1,3,0.4,4c0.3,1,0.7,1.8,1.3,2.3c0.7,0.7,1.7,1.2,2.9,1.4c1.2,0.2,2.9,0.3,5,0.3h30.4V471
		H886L886,523.3L886,523.3z"/>
	<path class="st1" d="M913.2,523.3h-13.2V471h13.2v19.9h45.6V471H972v52.3h-13.2v-21.7h-45.6V523.3z"/>
	<path class="st1" d="M1029.2,470.2c7.3,0,13.4,0.6,18.2,1.8c4.8,1.2,8.7,3.3,11.6,6.2c2.1,2.2,3.7,4.9,4.7,8.1
		c1,3.2,1.5,6.9,1.5,10.9c0,4.1-0.5,7.7-1.5,10.9c-1,3.2-2.6,5.9-4.7,8.1c-2.9,2.9-6.7,5-11.6,6.2c-4.8,1.2-10.9,1.8-18.3,1.8h-10.3
		c-7.3,0-13.4-0.6-18.2-1.8c-4.8-1.2-8.7-3.3-11.6-6.2c-2.1-2.2-3.7-4.8-4.7-8.1c-1-3.2-1.5-6.9-1.5-10.9c0-4.1,0.5-7.7,1.5-10.9
		c1-3.2,2.6-5.9,4.7-8.1c2.9-2.9,6.7-5,11.6-6.2c4.8-1.2,10.9-1.8,18.2-1.8H1029.2L1029.2,470.2z M1028,512.7c2.4,0,4.6,0,6.6-0.1
		c1.9-0.1,3.7-0.3,5.2-0.5c1.5-0.2,2.9-0.6,4.1-1c1.2-0.5,2.2-1,3.1-1.7c1.5-1.2,2.7-2.9,3.4-4.9c0.7-2,1.1-4.4,1.1-7.3
		c0-2.9-0.4-5.3-1.1-7.3c-0.7-2-1.8-3.6-3.4-4.9c-1.8-1.3-4.2-2.2-7.1-2.7c-3-0.5-6.9-0.7-11.9-0.7h-7.8c-4.9,0-8.9,0.2-11.9,0.7
		c-3,0.5-5.4,1.4-7.1,2.7c-1.5,1.2-2.7,2.9-3.4,4.9c-0.7,2-1.1,4.4-1.1,7.3c0,2.9,0.4,5.3,1.1,7.3c0.7,2,1.8,3.6,3.4,4.9
		c0.9,0.7,1.9,1.2,3.1,1.7c1.2,0.5,2.5,0.8,4.1,1c1.5,0.2,3.3,0.4,5.2,0.5c1.9,0.1,4.1,0.1,6.6,0.1H1028z"/>
	<path class="st1" d="M1137.5,523.3H1076V471h61.3v10.4h-48.1v10.2h32.4v9.9h-32.4v11.4h48.3V523.3z"/>
</g>
</svg>
