<?xml version="1.0" encoding="utf-8"?>
<!-- Generator: Adobe Illustrator 19.0.0, SVG Export Plug-In . SVG Version: 6.00 Build 0)  -->
<svg version="1.1" id="LOGO_ARTWORK" xmlns="http://www.w3.org/2000/svg" xmlns:xlink="http://www.w3.org/1999/xlink" x="0px"
	 y="0px" viewBox="-84 314.7 283.5 126.7" style="enable-background:new -84 314.7 283.5 126.7;" xml:space="preserve">
<style type="text/css">
	.st0{fill:#FFFFFF;}
</style>
<g>
	<g>
		<path class="st0" d="M-30.5,321.6c0.2,0,0.5,0,0.8,0c1.3,0,2.8-0.5,3.8-1c0.7-0.3,1.2-0.6,1.1-0.6c-0.9,0-2.4,0-2.9,0
			c-2.4,0-3.6,1.3-3.6,1.5C-31.4,321.6-31,321.6-30.5,321.6z M188.8,384.7c-1.3-3-5-2-5-2c-1.7,0.4-3.7,2.4-6.7,3.2
			c-6.4,1.9-11.4-0.3-11.4-0.3c-9.8-4.2-41.3-22.3-57.3-30.1c0,0-18.4-9.2-45.3-19.9c0,0-52.2-22.9-88.6-20.8c0,0-18.9,0.8-24.8,9.4
			c0,0-1,1.1-0.4,2.4c0,0,0.1,0.4-0.1,0.6c0,0-3.2,2.8-4.8,5.4c-0.6,0.9-1.2,2.5,0,3.5c0,0,0.5,0.4,0.7,0.8c0.5,0.8,0.9,1.9,1.5,2.5
			c0.8,1,2.5,2.7,4.8,2.3c0.9-0.2,1.1-0.5,1.1-0.5c1.2,1.2,3.1,1.1,3.1,1.1c-0.2-0.7-1.1-2.2-1.2-3.1c-0.1-1,0.2-1.9,0.2-1.9
			c0.3-1.1,1-2.5,1.7-3.2c0.6-0.6,2.3-1.4,3.6-0.4c1,0.7,2.3,3.2,1.3,6.6c0,0.3-1.2,2.7-2.4,3.1c0,0-0.1,0-0.3,0
			c-0.8,0-2.4-0.9-2.4-0.9s0,0.2,0.2,1.1c0.1,0.5,0.3,1.1,0.5,1.5c0,0-0.3,0.5-0.5,0.8c-0.3,0.5-0.5,1.5,0.1,2c0,0,2.7,1.9,5.4,2
			c1.8,0.1,2.5-1.1,2.5-1.1c1.3-1.8,2.4-3.4,3.8-4.7c3.9-3.5,9.3-4.5,9.3-4.5c0.4,0,6.3-1.7,16.4,6.4c-2.9,0.2-6.3,0.9-8.9,1.4
			c-7.5,1.3-12.3,8.4-13.7,11.2c-3.6,7.5,3.8,10.1,3.8,10.1c0.1-0.1,7.1-0.6,10.5-8.1c0,0,1.2-3.3,4.5-2.2
			c2.1,0.7,21.1,7.3,25.4,8.5c0,0,12.7,3.3,17.5-2.5c7.7,2.5,14.8,3.7,33.7,1.3c3.3-0.4,5.8-0.3,5.8-0.3c4.4,0.3,8.4,3.3,9.6,5.2
			c4.9,7.9,11.2,23.7,33,21.7l9.9-0.9c6-0.4,10.9-0.6,15.9,2c2.2,1.1,3.4,1.6,7,5.1c5,4.8,9.6,9.9,15.8,7.1c2.2-1,4.6-4.9,4.6-4.9
			c-0.2-1.8-1-3.5-3-4.9c5.6,1.3,18.2,2.2,23.1-6.3C189.2,387.5,189.3,385.8,188.8,384.7z M-25.5,316.4
			c35.6-2.1,87.4,20.4,87.9,20.6l0,0l0,0c4.3,1.7,8.5,3.4,12.3,5c-0.9-0.4-5.6-2.2-5.6-2.2c-7.6-3-21.5-7.6-21.6-7.6
			c-18.2-6.3-26.2-7.4-26.8-7.5c-2.2-0.4-3-0.4-3-0.4l-3.3-0.4c0,0,1.8,2.9,1.8,2.9c-12.9-9.1-28.3-9.6-29-9.6h0
			c-3.1,0-5.8,0.9-7.9,1.9c0.2-0.4,1.1-2,1.1-2l-2.6-0.1c-4.6-0.2-8.1,0-10.6,0.2C-28.7,316.6-25.6,316.4-25.5,316.4z M-55.1,333.4
			c2.1-3.1,4.8-5.4,4.8-5.4c0,0,0.1-0.1,0.1-0.1c0,0,0.1-0.1,0.1-0.1c0.2,0.2,0.4,0.4,0.7,0.6C-50.9,328.9-55.1,333.4-55.1,333.4z
			 M-39.4,332.4c-1-0.7-2-0.8-3-0.6c0.4-0.3,1.1-0.4,1.1-0.4c0.4-0.1,2.6-0.1,3.6,3.2C-38.1,333.6-38.7,332.9-39.4,332.4z
			 M186.9,388.7c-0.5,1.7-2.8,3.9-5.7,5.1c-3,1.3-9.3,1.7-12.9,1.1c0,0-7-0.7-13.2-7.1c-1.9-2-4.3-4.3-6.5-6.6c-1-1-3.4-3.4-7.3-3.9
			c-4.1-0.6-14.2-0.8-18-2.1c-2.5-0.8-5.6-2.6-9.7-8.6c-2-2.9-3.4-3.7-6-5.4c0,0,2,1.6,3.2,3.7c1.7,3,2.5,5.1,3.4,6.7
			c0.9,1.6,1.9,3,3.5,4.3c1.9,1.6,3.1,1.8,5.2,2.2c2,0.3,8.8,0.3,14.6,0.2c5.7-0.1,8.2,1.8,10.1,3.3c1.7,1.5,4.7,5.6,6.5,7.5
			c2.2,2.2,3.8,4.4,8.1,6.6c1.5,0.8,3.9,2.6,3.8,4.4c-1.9,1.9-4.3,2.4-10.1,0.9c0.4,0.4,3.4,3.6,8.6,2.1c-1.6,1.3-3.1,1.9-4.7,1.8
			c-5.4-0.3-10.7-7-13.7-9.4c-2.3-1.9-2.5-2.3-6.4-5c-5.8-4-18.9-2.9-18.9-2.9l-9.6,0.5c-18.7,1.4-26.5-15.1-28.6-18.6
			c-0.7-1.2-1.4-2.2-2-2.9c-1-1.3-6.1-7.9-11.2-10.1c0,0,5.1,4.4,4.8,7.2c0,0-2.1-1-7.8-0.2c-24.6,3.5-33-2.6-33-2.6
			c1.1-4.9-2.3-10-2.3-10c1.9,0.6,14,4.7,25.5,2.4c0,0-18.7,0.1-31.8-10.4c0,0,8.2,10.2,6.2,16.9c0,0-1.3,7.1-15.5,4.3
			c-1.5-0.3-3.3-0.8-24.6-6.7c-5-1.5-6.7,0.9-7.6,2.3c0,2.1-2.5,4.6-3.8,5.3c-6.6-1.2-4-7.3-4-7.3c-4.1,5.9,0.2,8.5,1.6,8.7
			c-0.8,0.4-1.6,0.7-2.3,0.9c0,0-5.4-3.2-2.4-8.5c4.2-7.3,8.5-9.7,16.3-10.4c3.4-0.3,6.3-0.6,8.5-0.3c5.7,0.8,9.2,4,17.7,4.8
			c-18.1-5.3-18.1-15.8-18.2-16c0,0,0,0,0,0c-1,3.5-0.4,6.4,0.4,8.8c-0.2-0.1-4.2-2.7-5.7-3.6c-6.5-4-11.6-4.6-11.6-4.6
			c-2.1-0.3-3.2-2.9-3.2-2.9c-0.1-0.1-0.1-0.3-0.2-0.4c-3-5.1-5.9-5.2-5.9-5.2c1.1,1.4,1.5,3.3,1.6,4.4c0.1,0.7,0.2,1.9,0.2,2.2
			c-0.1,5.5-6.4,7.2-6.4,7.2c-4.4,5.6-4.2,5.7-5.2,5.8c-1,0.1-3.1-1-3.1-1c-0.2-0.1-0.2-0.3-0.2-0.5c0.1-0.3,0.3-0.6,0.3-0.6
			c0.8-0.7,1.5-1.3,1.5-1.3c4.7-4.8,5.2-7.1,4.6-10.2c-1.2-6.2-5.6-5.5-5.6-5.5c-2.2,0.2-3,2-3,2c-0.7,1.1-2.3,4.6-2.3,4.6
			c-1,2.1-1.9,2.5-2.4,2.6c-0.2,0-0.6,0-0.8,0c-1.5-0.1-2.6-1.4-2.6-1.4c-0.1-0.1-0.1-0.1-0.2-0.2c-1.4-1.5-0.4-3.4-0.4-3.4
			c1.8-4.3,5.4-4.9,5.9-5c0.5-0.1,2.1-0.3,2.1-0.3c4.5-0.8,6.7-5.5,6.7-5.5c-3.1,0-4.6,0.2-4.6,0.2c-3,0.5-4,4.1-4,4.1
			c-2.6,0.6-2.5-1.6-2-2.3c0.4-0.6,1.9-3.3,11.7-5.5c0,0,4.8-1.5,15.2-1c0,0,0,0-0.4,0.8c-0.9,1.7-4.5,5.3-10.5,4
			c0,0,0.1,2.7,6.6,3.6c0,0,5.9,1.1,15.8,9.1c0,0-4.8-9.5-12.9-11.9c0,0-1-0.2-0.5-0.9c0,0,4.8-4.5,11.4-4.5c0,0,20.7,0.4,33.9,14.2
			c0,0-0.6-2.4-2.6-5.8c0,0,0,0-0.9-1.4c0,0,0.8,0.1,3,0.4c0,0,7.9,1,26.5,7.4c0,0,13.9,4.6,21.5,7.6c11.4,4.6,40.1,15.7,58.4,25.6
			c3.3,1.8,36.3,19,36.3,19c9.2,4.1,15.5,1.6,15.5,1.6c2.1-0.8,5.8-3.7,7.4-2C187.1,386.5,187.3,387.6,186.9,388.7z M-46.1,327.5
			c0,0,0.2-0.6,0.2-0.7c0.1-0.1,0.6-1.6,1.9-1.8c0,0,0.8,0,2,0c0,0-0.6,1.9-2.9,2.3C-44.8,327.2-45.7,327.4-46.1,327.5z
			 M-24.1,325.8c1.9,0.6,3.6,1.6,5.2,2.9c-4.6-2.6-7.2-3.1-7.4-3.1l0,0c-0.7-0.1-1.3-0.2-1.9-0.4c0.9-0.2,1.7-0.5,2.5-0.8
			c0,0,0,0,0,0C-25.5,325.4-24.5,325.7-24.1,325.8z"/>
	</g>
	<g>
		<path class="st0" d="M186.4,433.2l1.6-0.1c0.7-0.1,1.3-0.1,2-0.2c1.6-0.2,3-0.7,4.1-1.3c0.4-0.2,0.7-0.4,1.1-0.7
			c1.4-1,2.2-2.4,2.3-4.3c0-0.4,0-0.7,0-1c-0.1-1.2-0.4-2.2-0.8-3c-0.6-0.9-1.4-1.7-2.5-2.2c-1.1-0.5-2.5-1-4.1-1.2
			c0,0-2.3-0.4-5.8-0.4h-26.7v22.5h8.4v-8h11.4l12.9,8h9.2L186.4,433.2z M182.6,421.4c0,0,0.1,0,0.1,0c0.9,0,1.8,0.1,2.5,0.1
			c0.9,0.1,1.6,0.3,2.2,0.6c0.6,0.3,1.1,0.8,1.4,1.4c0.2,0.5,0.4,1.2,0.4,1.9c0,0,0,1.1,0,1.7c0,0.6-0.2,1.1-0.4,1.6
			c-0.2,0.4-0.5,0.8-0.8,1.1c-0.1,0.1-0.2,0.2-0.3,0.2c-0.5,0.3-1.2,0.5-2.1,0.6c-0.8,0.1-1.8,0.1-3,0.1H166v-9.4L182.6,421.4
			L182.6,421.4z"/>
		<path class="st0" d="M-56.4,418.8v10.6c0,3.2-1.2,5.5-3.5,7c-2,1.3-4.8,1.9-8.5,1.9H-84v3h13c3.6,0,6.9-0.1,9.8-0.4
			c2.8-0.3,5.3-0.8,7.2-1.6c1.9-0.8,3.4-1.9,4.4-3.4c0.9-1.3,1.4-3.1,1.5-5.2c0-0.2,0-0.4,0-0.7v-11.2L-56.4,418.8L-56.4,418.8z"/>
		<path class="st0" d="M39.8,431v7.3H27c-6.7,0-10.6-2.2-11.7-6.4c-0.4-1.8-0.2-3.4,0-4.1c1-4.3,4.9-6.4,11.7-6.4H47v-2.7H29.6
			c-3.7,0-7,0.1-9.9,0.4c-2.8,0.2-5.3,0.8-7.2,1.6c-1.9,0.8-3.4,1.9-4.4,3.4c-1,1.4-1.5,3.3-1.5,5.6c0,0.1,0,0.1,0,0.2
			c0,0.1,0,0.2,0,0.3c0,2.4,0.5,4.3,1.6,5.7c1,1.5,2.5,2.6,4.4,3.4c2,0.8,4.4,1.3,7.2,1.6c2.9,0.3,6.2,0.4,9.8,0.4h18.6V431
			L39.8,431L39.8,431z"/>
		<path class="st0" d="M-16.2,418.8h-8.7l-19.4,22.5h5l4.4-5.1h24.4l4.4,5.1h9.3L-16.2,418.8z M-22.7,422.1l10.1,11.7h-20.2
			L-22.7,422.1z"/>
		<path class="st0" d="M122.1,418.8l-19.4,22.5h5l4.4-5.1h24.3l4.4,5.1h9.3l-19.4-22.5H122.1z M134.3,433.9h-20.2l10.1-11.7
			L134.3,433.9z"/>
		<path class="st0" d="M90.5,418.8v11.4c0,1-0.1,1.9-0.3,2.7c-1.1,4.2-5,6.3-11.6,6.3h-0.8c-6.7,0-10.6-2.2-11.7-6.4
			c-0.2-0.8-0.3-1.6-0.3-2.6v-11.4h-8.4v11.8c0,2.5,0.5,4.4,1.6,5.9c0.6,0.9,1.5,1.7,2.4,2.4c0.6,0.4,1.3,0.7,2,1
			c0.7,0.3,1.5,0.6,2.4,0.8c1.4,0.4,3.1,0.7,4.8,0.8c2.3,0.2,4.8,0.4,7.6,0.4c2.8,0,5.3-0.1,7.6-0.4c1.8-0.2,3.4-0.4,4.8-0.8
			c0.9-0.2,1.7-0.5,2.4-0.8c0.7-0.3,1.4-0.6,2-1c1-0.7,1.8-1.4,2.5-2.4c1-1.5,1.5-3.5,1.5-5.9v-11.8H90.5L90.5,418.8z"/>
	</g>
</g>
</svg>
