<!-- Generated by IcoMoon.io -->
<svg version="1.1" xmlns="http://www.w3.org/2000/svg" width="512" height="512" viewBox="0 0 512 512">
<title></title>
<g id="icomoon-ignore">
</g>
<path d="M132.778 113.643c0-10.395-8.489-18.822-18.962-18.822s-18.962 8.427-18.962 18.822v0.282c0 10.395 8.489 18.822 18.962 18.822s18.962-8.427 18.962-18.822v-0.282z"></path>
<path d="M47.406 0c-26.181 0-47.406 21.225-47.406 47.407v113.777c0 26.183 21.224 47.407 47.406 47.407h113.773c26.181 0 47.406-21.225 47.406-47.407v-113.777c0-26.182-21.224-47.407-47.406-47.407h-113.773zM37.925 47.407c0-5.236 4.245-9.481 9.481-9.481h113.773c5.236 0 9.481 4.245 9.481 9.481v113.777c0 5.237-4.244 9.482-9.481 9.482h-113.773c-5.236 0-9.481-4.245-9.481-9.482v-113.777z"></path>
<path d="M417.147 113.643c0-10.395-8.489-18.822-18.962-18.822s-18.962 8.427-18.962 18.822v0.282c0 10.395 8.489 18.822 18.962 18.822s18.962-8.427 18.962-18.822v-0.282z"></path>
<path d="M303.416 47.407c0-26.182 21.225-47.407 47.406-47.407h113.772c26.181 0 47.406 21.225 47.406 47.407v113.777c0 26.183-21.225 47.407-47.406 47.407h-113.772c-26.181 0-47.406-21.225-47.406-47.407v-113.777zM350.822 37.925c-5.238 0-9.482 4.245-9.482 9.481v113.777c0 5.237 4.245 9.482 9.482 9.482h113.772c5.238 0 9.482-4.245 9.482-9.482v-113.777c0-5.236-4.245-9.481-9.482-9.481h-113.772z"></path>
<path d="M132.778 398.082c0-10.396-8.489-18.824-18.962-18.824s-18.962 8.428-18.962 18.824v0.281c0 10.394 8.489 18.821 18.962 18.821s18.962-8.428 18.962-18.821v-0.281z"></path>
<path d="M0 350.81c0-26.181 21.224-47.406 47.406-47.406h113.773c26.181 0 47.406 21.225 47.406 47.406v113.779c0 26.181-21.224 47.406-47.406 47.406h-113.773c-26.181 0-47.406-21.225-47.406-47.406v-113.779zM47.406 341.33c-5.236 0-9.481 4.245-9.481 9.479v113.779c0 5.235 4.245 9.479 9.481 9.479h113.773c5.236 0 9.481-4.245 9.481-9.479v-113.779c0-5.235-4.244-9.479-9.481-9.479h-113.773z"></path>
<path d="M303.416 320.906v78.771c0 9.666 8.489 17.502 18.962 17.502s18.962-7.836 18.962-17.502v-58.347h58.345c9.666 0 17.502-8.491 17.502-18.964s-7.836-18.962-17.502-18.962h-78.766c-4.728 0-9.019 2.033-12.17 5.332-3.3 3.151-5.332 7.442-5.332 12.17z"></path>
<path d="M512 322.224c0-10.394-8.489-18.821-18.962-18.821s-18.962 8.428-18.962 18.821v0.281c0 10.396 8.489 18.824 18.962 18.824s18.962-8.428 18.962-18.824v-0.281z"></path>
<path d="M320.919 474.068c-9.666 0-17.502 8.491-17.502 18.964s7.836 18.962 17.502 18.962h78.766c9.666 0 17.502-8.489 17.502-18.962s-7.836-18.964-17.502-18.964h-78.766z"></path>
<path d="M379.223 398.224c0-10.473 9.142-18.964 20.421-18.964h91.894c0.264 0 0.527 0.005 0.791 0.015 0.236-0.010 0.471-0.015 0.709-0.015 5.373 0 10.227 2.409 13.678 6.279 3.259 3.358 5.24 7.805 5.24 12.685v0.077c0.028 0.455 0.043 0.916 0.043 1.382v91.897c0 11.277-8.489 20.421-18.962 20.421s-18.962-9.144-18.962-20.421v-74.394h-74.432c-11.279 0-20.421-8.489-20.421-18.962z"></path>
</svg>
