<svg width="22" height="20" viewBox="0 0 22 20" fill="none" xmlns="http://www.w3.org/2000/svg"><path d="M3 19.5L15.5 0h2L5 19.5H3zM6.976.006c-.393.037-.76.156-1.077.345-.328.196-.651.519-.85.85-.025.04-.05.072-.056.068a.215.215 0 01-.037-.053 2.99 2.99 0 00-.292-.39 2.458 2.458 0 00-.546-.45A2.693 2.693 0 003.1.03a4.663 4.663 0 00-.882 0C1.162.168.418.744.116 1.658-.08 2.25-.027 2.869.274 3.51c.524 1.122 1.71 2.31 3.9 3.908.573.417.82.589.834.58.038-.021.454-.303.695-.47.64-.445 1.2-.871 1.711-1.305.26-.22.755-.676.94-.866.958-.98 1.477-1.834 1.624-2.673.03-.164.029-.586 0-.744C9.816 1.06 9.2.423 8.236.141a3.535 3.535 0 00-.94-.14c-.125-.002-.268 0-.32.005zM18.976 11.006a2.57 2.57 0 00-1.077.345c-.328.196-.652.519-.85.85-.025.04-.05.072-.056.068a.213.213 0 01-.037-.053 2.979 2.979 0 00-.292-.39 2.458 2.458 0 00-.546-.45 2.694 2.694 0 00-1.018-.345 4.675 4.675 0 00-.882 0c-1.056.137-1.8.713-2.102 1.627-.196.592-.143 1.211.158 1.854.524 1.12 1.71 2.31 3.9 3.907.573.417.82.589.834.58.038-.021.454-.303.695-.47.64-.445 1.2-.871 1.712-1.305.26-.22.754-.676.94-.866.957-.98 1.476-1.834 1.623-2.673.03-.165.029-.586 0-.744-.163-.882-.778-1.518-1.743-1.8a3.915 3.915 0 00-1.26-.135z" fill="#fff"/></svg>
